# xmcd
#
# Track frame offsets:
#	150
#	16887
#	30934
#	47651
#	63870
#	80944
#	97987
#	110362
#	125936
#	137397
#	151936
#	165894
#
# Disc length: 2420 seconds
#
# Revision: 1
# Processed by: cddbd v1.5PL3 Copyright (c) Steve Scherf et al.
# Submitted via: audiograbber 1.83.01
#
DISCID=8909720c
DTITLE=Lana Brown - Diamond In The Dark
DYEAR=1900
DGENRE=Country
TTITLE0=End Of The Line
TTITLE1=A Real Goodbye
TTITLE2=Loving You Is Hard
TTITLE3=Only Lonely
TTITLE4=You
TTITLE5=Diamond In The Dark
TTITLE6=You Move Me
TTITLE7=If You Find Love
TTITLE8=Love Came Crashing In
TTITLE9=Telling Me Something
TTITLE10=That's What Highways Are For
TTITLE11=Carolyn
EXTD=
EXTT0=
EXTT1=
EXTT2=
EXTT3=
EXTT4=
EXTT5=
EXTT6=
EXTT7=
EXTT8=
EXTT9=
EXTT10=
EXTT11=
PLAYORDER=
